<mxfile host="app.diagrams.net" modified="2024-04-11T16:54:19.657Z" agent="Mozilla/5.0 (X11; Linux x86_64; rv:109.0) Gecko/20100101 Firefox/114.0" etag="IXdzGK_MBoJY4o9UvcHu" version="24.2.3" type="device">
  <diagram name="PÃ¡gina-1" id="gHQb96KS4q3t2H0Nk5Vd">
    <mxGraphModel dx="1434" dy="789" grid="1" gridSize="10" guides="1" tooltips="1" connect="1" arrows="1" fold="1" page="1" pageScale="1" pageWidth="827" pageHeight="1169" background="#cafeab" math="0" shadow="0">
      <root>
        <mxCell id="0" />
        <mxCell id="1" parent="0" />
        <mxCell id="3DdhDnloqlqG-nsaE9-4-36" style="edgeStyle=orthogonalEdgeStyle;rounded=0;orthogonalLoop=1;jettySize=auto;html=1;exitX=0;exitY=0.5;exitDx=0;exitDy=0;entryX=1;entryY=0.5;entryDx=0;entryDy=0;" edge="1" parent="1" source="5kBc1PmtwXuqb3jVYr31-1" target="5kBc1PmtwXuqb3jVYr31-2">
          <mxGeometry relative="1" as="geometry" />
        </mxCell>
        <mxCell id="5kBc1PmtwXuqb3jVYr31-1" value="&lt;font style=&quot;font-size: 12px;&quot;&gt;1&lt;/font&gt;" style="ellipse;whiteSpace=wrap;html=1;aspect=fixed;" parent="1" vertex="1">
          <mxGeometry x="480" y="200" width="40" height="40" as="geometry" />
        </mxCell>
        <mxCell id="3DdhDnloqlqG-nsaE9-4-35" style="edgeStyle=orthogonalEdgeStyle;rounded=0;orthogonalLoop=1;jettySize=auto;html=1;exitX=0;exitY=0.5;exitDx=0;exitDy=0;entryX=1;entryY=0.5;entryDx=0;entryDy=0;" edge="1" parent="1" source="5kBc1PmtwXuqb3jVYr31-2" target="3DdhDnloqlqG-nsaE9-4-1">
          <mxGeometry relative="1" as="geometry" />
        </mxCell>
        <mxCell id="5kBc1PmtwXuqb3jVYr31-2" value="&lt;font style=&quot;font-size: 12px;&quot;&gt;2&lt;/font&gt;" style="ellipse;whiteSpace=wrap;html=1;aspect=fixed;" parent="1" vertex="1">
          <mxGeometry x="400" y="200" width="40" height="40" as="geometry" />
        </mxCell>
        <mxCell id="3DdhDnloqlqG-nsaE9-4-4" style="rounded=0;orthogonalLoop=1;jettySize=auto;html=1;exitX=0;exitY=1;exitDx=0;exitDy=0;entryX=1;entryY=0;entryDx=0;entryDy=0;" edge="1" parent="1" source="3DdhDnloqlqG-nsaE9-4-1" target="3DdhDnloqlqG-nsaE9-4-2">
          <mxGeometry relative="1" as="geometry" />
        </mxCell>
        <mxCell id="3DdhDnloqlqG-nsaE9-4-5" style="rounded=0;orthogonalLoop=1;jettySize=auto;html=1;exitX=1;exitY=1;exitDx=0;exitDy=0;entryX=0;entryY=0;entryDx=0;entryDy=0;" edge="1" parent="1" source="3DdhDnloqlqG-nsaE9-4-1" target="3DdhDnloqlqG-nsaE9-4-3">
          <mxGeometry relative="1" as="geometry" />
        </mxCell>
        <mxCell id="3DdhDnloqlqG-nsaE9-4-1" value="&lt;div&gt;3&lt;/div&gt;" style="ellipse;whiteSpace=wrap;html=1;aspect=fixed;" vertex="1" parent="1">
          <mxGeometry x="320" y="200" width="40" height="40" as="geometry" />
        </mxCell>
        <mxCell id="3DdhDnloqlqG-nsaE9-4-11" style="edgeStyle=orthogonalEdgeStyle;rounded=0;orthogonalLoop=1;jettySize=auto;html=1;exitX=0.5;exitY=1;exitDx=0;exitDy=0;" edge="1" parent="1" source="3DdhDnloqlqG-nsaE9-4-2" target="3DdhDnloqlqG-nsaE9-4-8">
          <mxGeometry relative="1" as="geometry" />
        </mxCell>
        <mxCell id="3DdhDnloqlqG-nsaE9-4-2" value="4.1" style="ellipse;whiteSpace=wrap;html=1;aspect=fixed;" vertex="1" parent="1">
          <mxGeometry x="240" y="280" width="40" height="40" as="geometry" />
        </mxCell>
        <mxCell id="3DdhDnloqlqG-nsaE9-4-3" value="&lt;font style=&quot;font-size: 25px;&quot;&gt;9&lt;/font&gt;" style="ellipse;whiteSpace=wrap;html=1;aspect=fixed;" vertex="1" parent="1">
          <mxGeometry x="440" y="440" width="80" height="80" as="geometry" />
        </mxCell>
        <mxCell id="3DdhDnloqlqG-nsaE9-4-12" style="edgeStyle=orthogonalEdgeStyle;rounded=0;orthogonalLoop=1;jettySize=auto;html=1;exitX=0.5;exitY=1;exitDx=0;exitDy=0;" edge="1" parent="1" source="3DdhDnloqlqG-nsaE9-4-8" target="3DdhDnloqlqG-nsaE9-4-9">
          <mxGeometry relative="1" as="geometry" />
        </mxCell>
        <mxCell id="3DdhDnloqlqG-nsaE9-4-16" style="edgeStyle=orthogonalEdgeStyle;rounded=0;orthogonalLoop=1;jettySize=auto;html=1;exitX=0;exitY=0.5;exitDx=0;exitDy=0;entryX=0;entryY=0.5;entryDx=0;entryDy=0;" edge="1" parent="1" source="3DdhDnloqlqG-nsaE9-4-8" target="3DdhDnloqlqG-nsaE9-4-15">
          <mxGeometry relative="1" as="geometry" />
        </mxCell>
        <mxCell id="3DdhDnloqlqG-nsaE9-4-8" value="4.2" style="ellipse;whiteSpace=wrap;html=1;aspect=fixed;" vertex="1" parent="1">
          <mxGeometry x="240" y="360" width="40" height="40" as="geometry" />
        </mxCell>
        <mxCell id="3DdhDnloqlqG-nsaE9-4-13" style="edgeStyle=orthogonalEdgeStyle;rounded=0;orthogonalLoop=1;jettySize=auto;html=1;exitX=0.5;exitY=1;exitDx=0;exitDy=0;entryX=0.5;entryY=0;entryDx=0;entryDy=0;" edge="1" parent="1" source="3DdhDnloqlqG-nsaE9-4-9" target="3DdhDnloqlqG-nsaE9-4-10">
          <mxGeometry relative="1" as="geometry" />
        </mxCell>
        <mxCell id="3DdhDnloqlqG-nsaE9-4-9" value="&lt;div&gt;5&lt;/div&gt;" style="ellipse;whiteSpace=wrap;html=1;aspect=fixed;" vertex="1" parent="1">
          <mxGeometry x="240" y="480" width="40" height="40" as="geometry" />
        </mxCell>
        <mxCell id="3DdhDnloqlqG-nsaE9-4-14" style="edgeStyle=orthogonalEdgeStyle;rounded=0;orthogonalLoop=1;jettySize=auto;html=1;exitX=1;exitY=0.5;exitDx=0;exitDy=0;entryX=1;entryY=0.5;entryDx=0;entryDy=0;" edge="1" parent="1" source="3DdhDnloqlqG-nsaE9-4-10" target="3DdhDnloqlqG-nsaE9-4-8">
          <mxGeometry relative="1" as="geometry" />
        </mxCell>
        <mxCell id="3DdhDnloqlqG-nsaE9-4-17" style="edgeStyle=orthogonalEdgeStyle;rounded=0;orthogonalLoop=1;jettySize=auto;html=1;exitX=0.5;exitY=1;exitDx=0;exitDy=0;" edge="1" parent="1" source="3DdhDnloqlqG-nsaE9-4-10" target="3DdhDnloqlqG-nsaE9-4-15">
          <mxGeometry relative="1" as="geometry" />
        </mxCell>
        <mxCell id="3DdhDnloqlqG-nsaE9-4-10" value="4.3" style="ellipse;whiteSpace=wrap;html=1;aspect=fixed;" vertex="1" parent="1">
          <mxGeometry x="240" y="600" width="40" height="40" as="geometry" />
        </mxCell>
        <mxCell id="3DdhDnloqlqG-nsaE9-4-23" style="edgeStyle=orthogonalEdgeStyle;rounded=0;orthogonalLoop=1;jettySize=auto;html=1;exitX=0.5;exitY=1;exitDx=0;exitDy=0;" edge="1" parent="1" source="3DdhDnloqlqG-nsaE9-4-15" target="3DdhDnloqlqG-nsaE9-4-19">
          <mxGeometry relative="1" as="geometry" />
        </mxCell>
        <mxCell id="3DdhDnloqlqG-nsaE9-4-15" value="6" style="ellipse;whiteSpace=wrap;html=1;aspect=fixed;" vertex="1" parent="1">
          <mxGeometry x="240" y="680" width="40" height="40" as="geometry" />
        </mxCell>
        <mxCell id="3DdhDnloqlqG-nsaE9-4-24" style="rounded=0;orthogonalLoop=1;jettySize=auto;html=1;exitX=1;exitY=0.5;exitDx=0;exitDy=0;entryX=0;entryY=0.5;entryDx=0;entryDy=0;" edge="1" parent="1" source="3DdhDnloqlqG-nsaE9-4-15" target="3DdhDnloqlqG-nsaE9-4-3">
          <mxGeometry relative="1" as="geometry" />
        </mxCell>
        <mxCell id="3DdhDnloqlqG-nsaE9-4-34" style="edgeStyle=orthogonalEdgeStyle;rounded=0;orthogonalLoop=1;jettySize=auto;html=1;exitX=1;exitY=0.5;exitDx=0;exitDy=0;entryX=0;entryY=0.5;entryDx=0;entryDy=0;" edge="1" parent="1" source="3DdhDnloqlqG-nsaE9-4-19" target="3DdhDnloqlqG-nsaE9-4-20">
          <mxGeometry relative="1" as="geometry" />
        </mxCell>
        <mxCell id="3DdhDnloqlqG-nsaE9-4-19" value="7.4" style="ellipse;whiteSpace=wrap;html=1;aspect=fixed;" vertex="1" parent="1">
          <mxGeometry x="240" y="760" width="40" height="40" as="geometry" />
        </mxCell>
        <mxCell id="3DdhDnloqlqG-nsaE9-4-30" style="edgeStyle=orthogonalEdgeStyle;rounded=0;orthogonalLoop=1;jettySize=auto;html=1;exitX=1;exitY=0.5;exitDx=0;exitDy=0;entryX=0;entryY=0.5;entryDx=0;entryDy=0;" edge="1" parent="1" source="3DdhDnloqlqG-nsaE9-4-20" target="3DdhDnloqlqG-nsaE9-4-21">
          <mxGeometry relative="1" as="geometry" />
        </mxCell>
        <mxCell id="3DdhDnloqlqG-nsaE9-4-33" style="rounded=0;orthogonalLoop=1;jettySize=auto;html=1;exitX=1;exitY=0;exitDx=0;exitDy=0;entryX=0;entryY=1;entryDx=0;entryDy=0;" edge="1" parent="1" source="3DdhDnloqlqG-nsaE9-4-20" target="3DdhDnloqlqG-nsaE9-4-3">
          <mxGeometry relative="1" as="geometry" />
        </mxCell>
        <mxCell id="3DdhDnloqlqG-nsaE9-4-20" value="7.5" style="ellipse;whiteSpace=wrap;html=1;aspect=fixed;" vertex="1" parent="1">
          <mxGeometry x="320" y="760" width="40" height="40" as="geometry" />
        </mxCell>
        <mxCell id="3DdhDnloqlqG-nsaE9-4-31" style="edgeStyle=orthogonalEdgeStyle;rounded=0;orthogonalLoop=1;jettySize=auto;html=1;exitX=1;exitY=0.5;exitDx=0;exitDy=0;entryX=0;entryY=0.5;entryDx=0;entryDy=0;" edge="1" parent="1" source="3DdhDnloqlqG-nsaE9-4-21" target="3DdhDnloqlqG-nsaE9-4-22">
          <mxGeometry relative="1" as="geometry" />
        </mxCell>
        <mxCell id="3DdhDnloqlqG-nsaE9-4-21" value="8" style="ellipse;whiteSpace=wrap;html=1;aspect=fixed;" vertex="1" parent="1">
          <mxGeometry x="400" y="760" width="40" height="40" as="geometry" />
        </mxCell>
        <mxCell id="3DdhDnloqlqG-nsaE9-4-32" style="edgeStyle=orthogonalEdgeStyle;rounded=0;orthogonalLoop=1;jettySize=auto;html=1;exitX=0.5;exitY=1;exitDx=0;exitDy=0;entryX=0.5;entryY=1;entryDx=0;entryDy=0;" edge="1" parent="1" source="3DdhDnloqlqG-nsaE9-4-22" target="3DdhDnloqlqG-nsaE9-4-20">
          <mxGeometry relative="1" as="geometry" />
        </mxCell>
        <mxCell id="3DdhDnloqlqG-nsaE9-4-22" value="7.6" style="ellipse;whiteSpace=wrap;html=1;aspect=fixed;" vertex="1" parent="1">
          <mxGeometry x="480" y="760" width="40" height="40" as="geometry" />
        </mxCell>
      </root>
    </mxGraphModel>
  </diagram>
</mxfile>
